<?xml version="1.0" encoding="UTF-8"?>
<svg width="800px" height="800px" viewBox="0 0 800 800" version="1.1" xmlns="http://www.w3.org/2000/svg">
    <g stroke="#0070f3" stroke-width="1" fill="none">
        <!-- Neural network nodes -->
        <circle cx="100" cy="100" r="4" fill="#0070f3" opacity="0.5"/>
        <circle cx="300" cy="150" r="4" fill="#0070f3" opacity="0.5"/>
        <circle cx="500" cy="100" r="4" fill="#0070f3" opacity="0.5"/>
        <circle cx="700" cy="150" r="4" fill="#0070f3" opacity="0.5"/>
        
        <circle cx="200" cy="250" r="4" fill="#0070f3" opacity="0.5"/>
        <circle cx="400" cy="250" r="4" fill="#0070f3" opacity="0.5"/>
        <circle cx="600" cy="250" r="4" fill="#0070f3" opacity="0.5"/>
        
        <circle cx="100" cy="350" r="4" fill="#0070f3" opacity="0.5"/>
        <circle cx="300" cy="350" r="4" fill="#0070f3" opacity="0.5"/>
        <circle cx="500" cy="350" r="4" fill="#0070f3" opacity="0.5"/>
        <circle cx="700" cy="350" r="4" fill="#0070f3" opacity="0.5"/>
        
        <circle cx="200" cy="450" r="4" fill="#0070f3" opacity="0.5"/>
        <circle cx="400" cy="450" r="4" fill="#0070f3" opacity="0.5"/>
        <circle cx="600" cy="450" r="4" fill="#0070f3" opacity="0.5"/>
        
        <circle cx="100" cy="550" r="4" fill="#0070f3" opacity="0.5"/>
        <circle cx="300" cy="550" r="4" fill="#0070f3" opacity="0.5"/>
        <circle cx="500" cy="550" r="4" fill="#0070f3" opacity="0.5"/>
        <circle cx="700" cy="550" r="4" fill="#0070f3" opacity="0.5"/>
        
        <circle cx="200" cy="650" r="4" fill="#0070f3" opacity="0.5"/>
        <circle cx="400" cy="650" r="4" fill="#0070f3" opacity="0.5"/>
        <circle cx="600" cy="650" r="4" fill="#0070f3" opacity="0.5"/>
        
        <circle cx="100" cy="750" r="4" fill="#0070f3" opacity="0.5"/>
        <circle cx="300" cy="750" r="4" fill="#0070f3" opacity="0.5"/>
        <circle cx="500" cy="750" r="4" fill="#0070f3" opacity="0.5"/>
        <circle cx="700" cy="750" r="4" fill="#0070f3" opacity="0.5"/>
        
        <!-- Neural network connections -->
        <!-- Layer 1 to 2 -->
        <path d="M100,100 L200,250" opacity="0.2"/>
        <path d="M100,100 L400,250" opacity="0.2"/>
        <path d="M100,100 L600,250" opacity="0.2"/>
        
        <path d="M300,150 L200,250" opacity="0.2"/>
        <path d="M300,150 L400,250" opacity="0.2"/>
        <path d="M300,150 L600,250" opacity="0.2"/>
        
        <path d="M500,100 L200,250" opacity="0.2"/>
        <path d="M500,100 L400,250" opacity="0.2"/>
        <path d="M500,100 L600,250" opacity="0.2"/>
        
        <path d="M700,150 L200,250" opacity="0.2"/>
        <path d="M700,150 L400,250" opacity="0.2"/>
        <path d="M700,150 L600,250" opacity="0.2"/>
        
        <!-- Layer 2 to 3 -->
        <path d="M200,250 L100,350" opacity="0.2"/>
        <path d="M200,250 L300,350" opacity="0.2"/>
        <path d="M200,250 L500,350" opacity="0.2"/>
        <path d="M200,250 L700,350" opacity="0.2"/>
        
        <path d="M400,250 L100,350" opacity="0.2"/>
        <path d="M400,250 L300,350" opacity="0.2"/>
        <path d="M400,250 L500,350" opacity="0.2"/>
        <path d="M400,250 L700,350" opacity="0.2"/>
        
        <path d="M600,250 L100,350" opacity="0.2"/>
        <path d="M600,250 L300,350" opacity="0.2"/>
        <path d="M600,250 L500,350" opacity="0.2"/>
        <path d="M600,250 L700,350" opacity="0.2"/>
        
        <!-- Layer 3 to 4 -->
        <path d="M100,350 L200,450" opacity="0.2"/>
        <path d="M100,350 L400,450" opacity="0.2"/>
        <path d="M100,350 L600,450" opacity="0.2"/>
        
        <path d="M300,350 L200,450" opacity="0.2"/>
        <path d="M300,350 L400,450" opacity="0.2"/>
        <path d="M300,350 L600,450" opacity="0.2"/>
        
        <path d="M500,350 L200,450" opacity="0.2"/>
        <path d="M500,350 L400,450" opacity="0.2"/>
        <path d="M500,350 L600,450" opacity="0.2"/>
        
        <path d="M700,350 L200,450" opacity="0.2"/>
        <path d="M700,350 L400,450" opacity="0.2"/>
        <path d="M700,350 L600,450" opacity="0.2"/>
        
        <!-- Layer 4 to 5 -->
        <path d="M200,450 L100,550" opacity="0.2"/>
        <path d="M200,450 L300,550" opacity="0.2"/>
        <path d="M200,450 L500,550" opacity="0.2"/>
        <path d="M200,450 L700,550" opacity="0.2"/>
        
        <path d="M400,450 L100,550" opacity="0.2"/>
        <path d="M400,450 L300,550" opacity="0.2"/>
        <path d="M400,450 L500,550" opacity="0.2"/>
        <path d="M400,450 L700,550" opacity="0.2"/>
        
        <path d="M600,450 L100,550" opacity="0.2"/>
        <path d="M600,450 L300,550" opacity="0.2"/>
        <path d="M600,450 L500,550" opacity="0.2"/>
        <path d="M600,450 L700,550" opacity="0.2"/>
        
        <!-- Layer 5 to 6 -->
        <path d="M100,550 L200,650" opacity="0.2"/>
        <path d="M100,550 L400,650" opacity="0.2"/>
        <path d="M100,550 L600,650" opacity="0.2"/>
        
        <path d="M300,550 L200,650" opacity="0.2"/>
        <path d="M300,550 L400,650" opacity="0.2"/>
        <path d="M300,550 L600,650" opacity="0.2"/>
        
        <path d="M500,550 L200,650" opacity="0.2"/>
        <path d="M500,550 L400,650" opacity="0.2"/>
        <path d="M500,550 L600,650" opacity="0.2"/>
        
        <path d="M700,550 L200,650" opacity="0.2"/>
        <path d="M700,550 L400,650" opacity="0.2"/>
        <path d="M700,550 L600,650" opacity="0.2"/>
        
        <!-- Layer 6 to 7 -->
        <path d="M200,650 L100,750" opacity="0.2"/>
        <path d="M200,650 L300,750" opacity="0.2"/>
        <path d="M200,650 L500,750" opacity="0.2"/>
        <path d="M200,650 L700,750" opacity="0.2"/>
        
        <path d="M400,650 L100,750" opacity="0.2"/>
        <path d="M400,650 L300,750" opacity="0.2"/>
        <path d="M400,650 L500,750" opacity="0.2"/>
        <path d="M400,650 L700,750" opacity="0.2"/>
        
        <path d="M600,650 L100,750" opacity="0.2"/>
        <path d="M600,650 L300,750" opacity="0.2"/>
        <path d="M600,650 L500,750" opacity="0.2"/>
        <path d="M600,650 L700,750" opacity="0.2"/>
    </g>
</svg>
